<?xml version="1.0" standalone="no"?>
<!DOCTYPE svg PUBLIC "-//W3C//DTD SVG 20010904//EN"
 "http://www.w3.org/TR/2001/REC-SVG-20010904/DTD/svg10.dtd">
<svg version="1.0" xmlns="http://www.w3.org/2000/svg"
 width="500.000000pt" height="500.000000pt" viewBox="0 0 500.000000 500.000000"
 preserveAspectRatio="xMidYMid meet">

<g transform="translate(0.000000,500.000000) scale(0.100000,-0.100000)"
fill="#000000" stroke="none">
<path d="M2249 4520 c-36 -5 -122 -22 -191 -38 -359 -88 -697 -277 -953 -536
-158 -159 -273 -318 -369 -513 -120 -242 -182 -467 -198 -725 -32 -518 76
-901 376 -1338 13 -19 61 -77 107 -129 321 -363 736 -588 1209 -657 138 -20
480 -15 625 10 229 38 529 156 725 284 174 114 364 286 477 432 229 294 377
646 408 968 43 440 -3 758 -157 1097 -221 484 -648 873 -1148 1046 -116 40
-317 88 -414 100 -94 10 -401 10 -497 -1z m511 -120 c407 -64 754 -242 1055
-545 112 -111 123 -126 199 -240 154 -231 246 -455 288 -700 32 -188 32 -500
0 -666 -33 -169 -103 -371 -181 -519 -97 -185 -283 -417 -424 -531 -48 -38
-67 -42 -67 -13 0 8 -21 58 -46 110 l-46 95 63 67 c71 74 179 171 211 188 46
25 58 84 34 165 -11 36 -12 63 -3 134 22 183 -21 401 -104 522 -90 133 -193
213 -349 271 -86 31 -105 35 -195 35 -233 -1 -389 -65 -535 -219 -110 -117
-150 -190 -179 -334 -12 -58 -28 -126 -36 -153 -14 -47 -14 -48 27 -132 44
-92 44 -81 2 -157 -32 -58 27 -158 93 -158 29 0 46 -13 126 -93 74 -75 109
-102 179 -138 49 -24 88 -47 88 -51 0 -10 -55 1 -99 18 -18 8 -37 14 -42 14
-4 0 -28 -40 -53 -89 -44 -86 -70 -184 -91 -333 -13 -97 -33 -70 -74 99 -36
145 -74 288 -111 413 -26 87 -89 311 -95 335 -1 6 -38 19 -81 29 -180 42 -254
76 -254 116 0 17 36 49 188 162 21 15 54 33 75 39 20 7 37 16 37 22 0 5 -12
31 -27 58 -33 58 -27 69 42 77 27 3 49 11 52 19 3 8 -2 41 -12 74 -10 32 -16
61 -14 62 2 2 46 23 97 47 50 24 92 47 92 52 0 5 -21 21 -46 36 -73 43 -135
93 -131 105 2 6 32 22 68 37 90 37 189 87 219 111 25 19 25 19 5 32 -16 10
-173 85 -210 101 -5 2 41 54 103 115 61 60 112 115 112 120 0 6 -17 11 -37 11
-51 0 -223 36 -237 50 -11 11 14 65 104 220 27 46 47 86 46 87 -2 2 -65 -17
-141 -42 -75 -26 -143 -44 -150 -42 -19 8 -36 109 -42 250 -3 70 -8 127 -10
127 -29 0 -179 -110 -253 -184 -30 -31 -59 -56 -65 -56 -5 1 -45 45 -87 98
-91 114 -142 167 -156 158 -5 -3 -12 -34 -16 -68 -7 -70 -50 -236 -64 -250 -6
-6 -62 8 -150 38 -77 27 -144 45 -148 41 -4 -4 1 -24 10 -45 46 -95 83 -250
62 -257 -6 -2 -87 -11 -181 -20 -93 -9 -174 -20 -178 -25 -5 -4 22 -41 60 -81
82 -89 133 -160 133 -187 0 -22 -53 -72 -135 -127 -27 -19 -63 -45 -80 -58
l-30 -25 39 -16 c21 -9 43 -16 48 -16 19 0 105 -50 146 -85 48 -42 52 -60 19
-95 -77 -83 -117 -132 -117 -144 0 -13 34 -31 133 -67 32 -11 61 -27 63 -34 3
-7 -4 -50 -15 -96 -13 -55 -16 -87 -10 -94 6 -6 47 -9 93 -7 l84 3 6 -48 c4
-26 9 -56 12 -65 6 -22 33 -23 60 -3 28 21 47 18 104 -15 28 -16 55 -30 59
-30 17 0 61 -42 61 -59 0 -10 -8 -25 -17 -33 -20 -16 -117 -53 -233 -89 -41
-13 -84 -32 -95 -44 -19 -18 -58 -138 -140 -428 -15 -53 -31 -97 -34 -96 -17
1 -203 239 -275 353 -108 169 -206 413 -248 615 -19 93 -22 137 -22 351 0 192
4 265 18 340 48 258 183 559 350 780 110 145 369 376 516 460 207 118 423 196
650 235 91 16 449 19 540 5z m-1018 -1356 c39 -18 82 -73 94 -118 3 -14 3 -42
0 -61 l-7 -35 -144 0 c-79 0 -155 4 -169 10 -35 13 -35 59 2 130 22 46 36 60
80 82 56 28 71 28 144 -8z m421 -70 c52 -17 107 -65 107 -93 0 -9 -7 -27 -16
-40 -15 -20 -22 -22 -58 -17 -22 4 -90 13 -150 20 -69 9 -111 18 -117 27 -21
34 0 95 41 117 31 16 125 10 193 -14z m-654 -766 c22 -48 36 -90 31 -93 -20
-12 -101 166 -99 219 0 23 -4 32 68 -126z m1598 -81 c77 -149 -28 -317 -197
-317 -123 0 -229 93 -230 201 l0 36 108 18 c135 22 199 46 242 90 18 19 37 32
42 29 5 -3 20 -29 35 -57z m232 22 c41 -46 96 -64 231 -74 135 -11 136 -12
103 -115 -54 -166 -318 -189 -408 -35 -36 60 -36 134 -1 210 14 30 28 55 32
55 3 0 23 -18 43 -41z m-1066 -559 c76 -158 90 -216 64 -266 -18 -35 -112
-134 -127 -134 -16 0 1 26 59 93 28 32 55 66 60 75 10 20 -8 67 -115 289 -35
73 -66 145 -70 160 -11 49 53 -60 129 -217z m-170 80 c24 -145 39 -290 35
-340 -4 -44 -4 -45 -16 -17 -12 28 -23 112 -42 317 -6 63 -14 126 -17 140 -5
22 -4 23 10 10 8 -8 22 -57 30 -110z m-352 -107 c-7 -92 -14 -169 -16 -171 -8
-9 -16 190 -10 260 8 91 12 105 28 89 7 -7 6 -62 -2 -178z m-87 -346 c16 -22
17 -29 6 -42 -16 -19 -30 -19 -30 1 0 9 -16 34 -35 56 -19 23 -32 45 -29 50 7
11 61 -29 88 -65z"/>
</g>
</svg>
